<svg xmlns="http://www.w3.org/2000/svg" viewBox="0 0 172 183">
<!-- SVG created with Arrow, by QuiverAI (https://quiver.ai) -->
  <style type="text/css">.cls-0 {fill:#09090F;}
.cls-1 {fill:#6D6E71;}
.cls-2 {fill:#42BD79;}
.cls-3 {fill:none;stroke:#42BD79;stroke-width:1.8057;stroke-linecap:round;stroke-linejoin:round;stroke-miterlimit:10;}</style>
  <rect class="cls-0" x="-.2" y="-.5" width="172.5" height="183.5"/>
  <path class="cls-1" d="m165 171.3v-0.3l-0.2-0.6c-0.1-0.3-0.5-0.3-0.5 0l-0.3 0.6c-0.6 1.9-2.8 3.8-4.7 4.4l-0.4 0.1c-0.3 0.1-0.3 0.4 0 0.5l0.4 0.1c2.3 0.8 4.2 2.7 4.8 4.6l0.2 0.6c0.1 0.3 0.4 0.3 0.5 0l0.2-0.6c0.6-2 2.5-4 4.5-4.6l0.6-0.2c0.3-0.1 0.3-0.4 0-0.5l-0.4-0.1c-2.5-0.6-4.2-2.3-4.7-4z"/>
  <path class="cls-3" d="m52.7 2.7-49.9 16.3c-0.2 0.2-0.3 0.3-0.3 1v43.8c0 28.7 23.5 52.3 49.9 62.2h0.5c13.5-4.3 38.1-17.6 45.9-38 3.2-7.8 4.2-16.2 4.2-24.2v-44.1c0-0.5-0.2-0.6-0.5-0.7l-49.8-16.3z"/>
  <path class="cls-3" d="m52.6 8.5-44.8 14.6 0.1 0.1c-0.1 0.1-0.1 32-0.1 32 0 2.8-0.1 8.2 0.3 14.5l44.4-44.5 44.3 44.5c0.3-2.9 0.2-7.7 0.2-9.9v-36.8l-44.4-14.5z"/>
  <path class="cls-3" d="m52.5 33.3-43.5 43.4c0.6 3.3 2.2 7.4 3.6 10l39.9-39.8 39.4 39.8c1.8-3.1 3.1-7.2 3.6-10l-43-43.4z"/>
  <path class="cls-3" d="m52.5 54-37 37.6c2.3 4.5 14.1 18.8 37 28 15.2-5 31.6-16.9 36.7-27.9l-36.7-37.7z"/>
</svg>