<svg xmlns="http://www.w3.org/2000/svg" width="500" height="500">
<path d="M0 0 C3 1 3 1 4.61328125 4.140625 C5.19001443 5.50610077 5.75572122 6.8762669 6.3125 8.25 C6.93501374 9.73096707 7.55872604 11.21143086 8.18359375 12.69140625 C8.49151855 13.42762207 8.79944336 14.16383789 9.11669922 14.92236328 C10.30187208 17.71004185 11.58267883 20.4480671 12.875 23.1875 C15.96120518 29.81376406 18.81290102 36.53444052 21.67431641 43.26025391 C24.23424764 49.26087139 26.90427369 55.18989191 29.671875 61.09765625 C31.46810264 65.02294195 33.09386398 69.01165001 34.734375 73.00390625 C36.00704079 76.01666756 37.36260997 78.97595589 38.75 81.9375 C44.06696658 93.35612543 48.89950072 104.99421 53.77734375 116.60546875 C58.12471083 126.9453947 62.49416807 137.23761459 67.3203125 147.36328125 C69.74855504 152.53453852 71.89760404 157.82676532 74.09277344 163.09985352 C75.95834938 167.5673932 77.88159487 171.99058353 79.9375 176.375 C83.72782233 184.47528562 87.20210866 192.70804507 90.69677734 200.93896484 C92.11986146 204.28153298 93.55388869 207.61930127 94.98828125 210.95703125 C95.99243485 213.30458171 96.99634462 215.65223649 98 218 C98.48106201 219.11592529 98.96212402 220.23185059 99.45776367 221.3815918 C99.90482666 222.4312915 100.35188965 223.48099121 100.8125 224.5625 C101.21082031 225.49191406 101.60914063 226.42132813 102.01953125 227.37890625 C102.96935294 229.91807101 103.55114497 232.33100181 104 235 C100.27701281 233.62691809 97.0698474 231.92411808 93.71875 229.8046875 C92.71730957 229.17449707 91.71586914 228.54430664 90.68408203 227.89501953 C89.63333496 227.22841309 88.58258789 226.56180664 87.5 225.875 C85.34132981 224.51533287 83.18247703 223.15595558 81.0234375 221.796875 C79.98670898 221.14267578 78.94998047 220.48847656 77.88183594 219.81445312 C74.30843664 217.5645799 70.72225623 215.33648047 67.125 213.125 C66.15820312 212.52945313 65.19140625 211.93390625 64.1953125 211.3203125 C62.06251686 209.99886701 62.06251686 209.99886701 60 209 C60 208.34 60 207.68 60 207 C59.01 207 58.02 207 57 207 C57 206.34 57 205.68 57 205 C56.40904541 204.87689453 55.81809082 204.75378906 55.20922852 204.62695312 C51.72438252 203.63799473 48.91712485 201.49879299 45.9375 199.5 C41.21170527 196.2903621 41.21170527 196.2903621 36 194 C36 193.34 36 192.68 36 192 C35.14148438 191.83177734 35.14148438 191.83177734 34.265625 191.66015625 C31.75210888 190.92776966 29.94069457 189.86145147 27.75 188.4375 C26.69039063 187.75494141 26.69039063 187.75494141 25.609375 187.05859375 C24.81273437 186.53458984 24.81273437 186.53458984 24 186 C24.15234375 184.18359375 24.15234375 184.18359375 25 182 C27.44140625 180.47265625 27.44140625 180.47265625 30.5625 179.0625 C35.64709137 176.67511122 40.30206978 174.0717236 45 171 C42.79240398 163.63677599 40.03413188 156.70026602 36.70874023 149.78100586 C34.62353292 145.41518954 32.75272101 141.00884539 31 136.5 C28.88051315 131.07316673 26.53986856 125.79568122 24.02734375 120.5390625 C20.83020385 113.77429867 17.92743911 106.88459609 15 100 C10.55822186 89.55918267 6.07606555 79.15213109 1 69 C0.75878418 69.56807373 0.51756836 70.13614746 0.26904297 70.72143555 C-7.68671435 89.43429984 -7.68671435 89.43429984 -11.125 96.75 C-13.73948229 102.32563627 -16.07637096 107.9908793 -18.390625 113.6953125 C-20.62276311 119.16701388 -23.07121785 124.51317176 -25.58984375 129.859375 C-27.54175593 134.20656999 -29.19574075 138.64808453 -30.82421875 143.125 C-31.98410666 145.96113789 -33.40870436 148.38842774 -35 151 C-35.7037414 152.60929099 -36.37123196 154.23496336 -37 155.875 C-38.17827747 158.93215235 -39.414413 161.91284307 -40.8125 164.875 C-42.04790014 168.12605301 -42.29762071 168.91068381 -41 172 C-39.2563238 173.39608998 -39.2563238 173.39608998 -37.03515625 174.4375 C-35.83536133 175.06785156 -35.83536133 175.06785156 -34.61132812 175.7109375 C-33.3496582 176.34902344 -33.3496582 176.34902344 -32.0625 177 C-30.40214109 177.84360037 -28.74691606 178.69740153 -27.09765625 179.5625 C-26.36039307 179.93503906 -25.62312988 180.30757812 -24.86352539 180.69140625 C-22.69038758 182.21741419 -21.98058052 183.56447871 -21 186 C-21.48243164 186.29132813 -21.96486328 186.58265625 -22.46191406 186.8828125 C-31.23913202 192.19171466 -39.92914741 197.55786491 -48.421875 203.3125 C-50.67795867 204.78920931 -52.93538693 206.10720636 -55.3125 207.375 C-59.49668171 209.61869164 -63.38499979 212.21732267 -67.3125 214.875 C-72.77990338 218.57437824 -78.32671149 222.00078538 -84.0703125 225.26171875 C-88.35432883 227.80356844 -92.42409259 230.640766 -96.50390625 233.49609375 C-99 235 -99 235 -102 235 C-100.58243999 230.57365516 -98.93464089 226.30484336 -97.13671875 222.01953125 C-96.72592827 221.0392823 -96.72592827 221.0392823 -96.30683899 220.03923035 C-95.72881303 218.66136907 -95.14970829 217.2839599 -94.56958008 215.90698242 C-93.69780539 213.83696995 -92.83008099 211.76529586 -91.96289062 209.69335938 C-88.76436888 202.06988041 -85.45994801 194.50925685 -82 187 C-77.9969072 178.1641727 -74.08379819 169.30203143 -70.4375 160.3125 C-68.11393268 154.59090213 -65.62284788 148.99022439 -62.9675293 143.41259766 C-56.49642403 129.67793533 -50.75812233 115.58597727 -44.88671875 101.5859375 C-44.39075195 100.40555908 -43.89478516 99.22518066 -43.38378906 98.0090332 C-42.44072145 95.76168588 -41.50110009 93.51288833 -40.56542969 91.26245117 C-40.14036133 90.24900635 -39.71529297 89.23556152 -39.27734375 88.19140625 C-38.90859131 87.30654541 -38.53983887 86.42168457 -38.15991211 85.51000977 C-36.94426694 82.87939559 -35.50411678 80.47448155 -34 78 C-33.20999729 76.0574591 -32.46261738 74.09724388 -31.75 72.125 C-29.88486979 67.15692044 -27.83755982 62.35082301 -25.5625 57.5625 C-21.29638882 48.57823171 -17.41860043 39.44315837 -13.625 30.25 C-11.44915841 25.00819982 -9.1755171 19.81295428 -6.875 14.625 C-6.53807129 13.86348633 -6.20114258 13.10197266 -5.85400391 12.31738281 C-4.00133797 8.157364 -2.07327728 4.05641207 0 0 Z" fill="#3C3F42" transform="translate(249,129)"/>
<path d="M0 0 C0.66 0.99 1.32 1.98 2 3 C1.125 6.6875 1.125 6.6875 0 10 C0.66 10 1.32 10 2 10 C3.38232443 11.62626404 4.71937515 13.2925002 6 15 C4.06829319 16.34171264 2.12943124 17.67312883 0.1875 19 C-0.89144531 19.7425 -1.97039062 20.485 -3.08203125 21.25 C-6 23 -6 23 -9 23 C-7.39306847 17.91949932 -5.42353736 13.03815871 -3.375 8.125 C-3.05015625 7.34125 -2.7253125 6.5575 -2.390625 5.75 C-1.59559238 3.83256838 -0.79805149 1.9161771 0 0 Z" fill="#444648" transform="translate(156,341)"/>
<path d="M0 0 C2.9375 0.375 2.9375 0.375 6 1 C6.33 1.66 6.66 2.32 7 3 C8.32 3 9.64 3 11 3 C11.99 4.485 11.99 4.485 13 6 C13.4125 5.505 13.825 5.01 14.25 4.5 C16 3 16 3 20 3 C20.67667998 4.24460783 21.34094719 5.49596896 22 6.75 C22.556875 7.79414063 22.556875 7.79414063 23.125 8.859375 C24 11 24 11 24 15 C20.53166989 13.70363929 17.48470086 12.18997707 14.35546875 10.21484375 C13.51435547 9.68439453 12.67324219 9.15394531 11.80664062 8.60742188 C10.94232422 8.05634766 10.07800781 7.50527344 9.1875 6.9375 C8.30384766 6.38255859 7.42019531 5.82761719 6.50976562 5.25585938 C1.6766466 2.19177388 1.6766466 2.19177388 0 1 C0 0.67 0 0.34 0 0 Z" fill="#5E6060" transform="translate(329,349)"/>
<path d="M0 0 C3 1 3 1 4.25 2.8125 C5.15889669 5.46344867 5.02018262 6.41030567 4 9 C2.625 11.75 2.625 11.75 1 14 C0.01 14 -0.98 14 -2 14 C-3.02019573 14.9793879 -4.02149805 15.97895449 -5 17 C-5.66 17 -6.32 17 -7 17 C-5.24009216 11.08030998 -2.60305395 5.58365008 0 0 Z" fill="#4E5252" transform="translate(249,129)"/>
<path d="M0 0 C0.66 0.33 1.32 0.66 2 1 C0.68 3.31 -0.64 5.62 -2 8 C-4.97 7.505 -4.97 7.505 -8 7 C-8.33 7.66 -8.66 8.32 -9 9 C-9.66 9 -10.32 9 -11 9 C-10.67 10.32 -10.34 11.64 -10 13 C-11.6875 14.625 -11.6875 14.625 -14 16 C-16.75 15.1875 -16.75 15.1875 -19 14 C-18.85546875 12.1875 -18.85546875 12.1875 -18 10 C-15.48828125 8.4375 -15.48828125 8.4375 -12.3125 7 C-7.91444598 4.93464448 -3.93333358 2.84074092 0 0 Z" fill="#6E6F6E" transform="translate(292,301)"/>
<path d="M0 0 C0.99 0.66 1.98 1.32 3 2 C4.65549531 2.38499891 6.3222433 2.72793135 8 3 C8.33 3.99 8.66 4.98 9 6 C5.37 7.98 1.74 9.96 -2 12 C-1.125 3.375 -1.125 3.375 0 0 Z" fill="#535656" transform="translate(219,309)"/>
<path d="M0 0 C1.65 0.33 3.3 0.66 5 1 C4.60348083 2.31872662 4.18201309 3.62997101 3.75 4.9375 C3.51796875 5.66839844 3.2859375 6.39929688 3.046875 7.15234375 C2 9 2 9 -0.109375 9.75390625 C-1.04523438 9.87572266 -1.04523438 9.87572266 -2 10 C-2.33 11.32 -2.66 12.64 -3 14 C-3.66 14 -4.32 14 -5 14 C-4.54636829 12.41531323 -4.08688548 10.83230076 -3.625 9.25 C-3.36976563 8.36828125 -3.11453125 7.4865625 -2.8515625 6.578125 C-2.0790066 4.23919428 -1.16374324 2.16557438 0 0 Z" fill="#4B4D4F" transform="translate(233,165)"/>
<path d="M0 0 C0.66 0 1.32 0 2 0 C2.34274406 1.66475686 2.67364302 3.33195323 3 5 C3.226875 6.03125 3.45375 7.0625 3.6875 8.125 C4 11 4 11 2 14 C1.29819469 12.5903653 0.61406042 11.17192359 -0.0625 9.75 C-0.44535156 8.96109375 -0.82820313 8.1721875 -1.22265625 7.359375 C-2.0915687 4.72207289 -1.98989621 3.55676051 -1 1 C-0.67 0.67 -0.34 0.34 0 0 Z" fill="#5F6163" transform="translate(291,282)"/>
<path d="M0 0 C1.76462683 3.08809695 2 4.23312136 2 8 C-1.37503669 6.8141763 -3.64722731 5.72426311 -6 3 C-3.375 0 -3.375 0 0 0 Z" fill="#767878" transform="translate(351,356)"/>
<path d="M0 0 C0.99 0.33 1.98 0.66 3 1 C3 1.66 3 2.32 3 3 C3.99 3.33 4.98 3.66 6 4 C0.375 8 0.375 8 -3 8 C-1.125 2.25 -1.125 2.25 0 0 Z" fill="#878787" transform="translate(150,356)"/>
<path d="M0 0 C2.6597889 1.32989445 2.9835728 2.68898191 4.1875 5.375 C4.55230469 6.16648437 4.91710937 6.95796875 5.29296875 7.7734375 C6 10 6 10 5 13 C4.34 12.01 3.68 11.02 3 10 C2.01 10 1.02 10 0 10 C0 8.35 0 6.7 0 5 C-0.66 5 -1.32 5 -2 5 C-1.34 3.35 -0.68 1.7 0 0 Z" fill="#7A7C7C" transform="translate(321,290)"/>
<path d="M0 0 C0.99 0.33 1.98 0.66 3 1 C4.1875 4.0625 4.1875 4.0625 5 7 C2.36 7.33 -0.28 7.66 -3 8 C-1.125 2.25 -1.125 2.25 0 0 Z" fill="#727371" transform="translate(249,129)"/>
<path d="M0 0 C0.66 0.33 1.32 0.66 2 1 C0.68 3.31 -0.64 5.62 -2 8 C-4.475 7.01 -4.475 7.01 -7 6 C-2.25 1.125 -2.25 1.125 0 0 Z" fill="#656768" transform="translate(292,301)"/>
<path d="M0 0 C1.32 0.33 2.64 0.66 4 1 C3.01 3.97 2.02 6.94 1 10 C-0.74627478 7.38058783 -1.38722388 5.96175123 -2 3 C-1.34 2.67 -0.68 2.34 0 2 C0 1.34 0 0.68 0 0 Z" fill="#56595A" transform="translate(229,234)"/>
<path d="M0 0 C0.66 0 1.32 0 2 0 C1.33333333 4 0.66666667 8 0 12 C-0.66 12 -1.32 12 -2 12 C-2.66 9.69 -3.32 7.38 -4 5 C-3.01 4.34 -2.02 3.68 -1 3 C-0.67 2.01 -0.34 1.02 0 0 Z" fill="#6B6E6D" transform="translate(207,289)"/>
<path d="M0 0 C0.66 0.33 1.32 0.66 2 1 C2.625 3.0625 2.625 3.0625 3 5 C2.01 5.495 2.01 5.495 1 6 C0.34786708 8.02463255 0.34786708 8.02463255 0 10 C-0.99 9.67 -1.98 9.34 -3 9 C-2.30058404 5.85262818 -1.23921302 2.97411124 0 0 Z" fill="#656769" transform="translate(219,197)"/>
<path d="M0 0 C0.66 0.33 1.32 0.66 2 1 C2.625 3.0625 2.625 3.0625 3 5 C2.01 5.33 1.02 5.66 0 6 C-0.73323796 8.01508358 -0.73323796 8.01508358 -1 10 C-1.66 10 -2.32 10 -3 10 C-2.01 6.7 -1.02 3.4 0 0 Z" fill="#636667" transform="translate(231,169)"/>
<path d="M0 0 C0.99 0 1.98 0 3 0 C3.99 2.97 4.98 5.94 6 9 C5.01 8.67 4.02 8.34 3 8 C3.33 7.34 3.66 6.68 4 6 C3.34 6 2.68 6 2 6 C2 5.34 2 4.68 2 4 C1.34 4 0.68 4 0 4 C0 2.68 0 1.36 0 0 Z" fill="#676869" transform="translate(302,250)"/>
<path d="M0 0 C2 3 2 3 1.6875 5.5 C1.17901328 7.34904262 0.60642538 9.18072387 0 11 C-0.99 10.67 -1.98 10.34 -3 10 C-2.01 6.7 -1.02 3.4 0 0 Z" fill="#707171" transform="translate(156,341)"/>
<path d="M0 0 C2.15377564 2.62198774 3.40072174 4.64404172 4 8 C3.01 7.67 2.02 7.34 1 7 C0.67 7.66 0.34 8.32 0 9 C-0.66 8.01 -1.32 7.02 -2 6 C-1.125 2.8125 -1.125 2.8125 0 0 Z" fill="#717474" transform="translate(315,276)"/>
<path d="M0 0 C1.32 1.65 2.64 3.3 4 5 C2.02 5.99 0.04 6.98 -2 8 C-1.125 1.125 -1.125 1.125 0 0 Z" fill="#626667" transform="translate(219,313)"/>
<path d="M0 0 C0.66 0.99 1.32 1.98 2 3 C1.34 3 0.68 3 0 3 C0.20625 3.78375 0.4125 4.5675 0.625 5.375 C0.810625 6.674375 0.810625 6.674375 1 8 C0.34 8.66 -0.32 9.32 -1 10 C-1.66 9.67 -2.32 9.34 -3 9 C-2.30058404 5.85262818 -1.23921302 2.97411124 0 0 Z" fill="#7B7E7E" transform="translate(174,300)"/>
<path d="M0 0 C0.99 0.33 1.98 0.66 3 1 C3.33 1.99 3.66 2.98 4 4 C1.525 5.485 1.525 5.485 -1 7 C-1.33 5.68 -1.66 4.36 -2 3 C-1.34 3 -0.68 3 0 3 C0 2.01 0 1.02 0 0 Z" fill="#4A4D4E" transform="translate(261,212)"/>
<path d="M0 0 C0.33 1.32 0.66 2.64 1 4 C-0.32 4.33 -1.64 4.66 -3 5 C-3.66 3.68 -4.32 2.36 -5 1 C-3 0 -3 0 0 0 Z" fill="#303437" transform="translate(335,322)"/>
<path d="M0 0 C1.32 0.66 2.64 1.32 4 2 C2.68 3.32 1.36 4.64 0 6 C-0.66 5.67 -1.32 5.34 -2 5 C-1.125 1.125 -1.125 1.125 0 0 Z" fill="#656667" transform="translate(158,353)"/>
<path d="M0 0 C1.32 1.32 2.64 2.64 4 4 C3.67 4.66 3.34 5.32 3 6 C2.34 6 1.68 6 1 6 C0.34 5.34 -0.32 4.68 -1 4 C-1.99 3.34 -2.98 2.68 -4 2 C-2.68 1.34 -1.36 0.68 0 0 Z" fill="#313335" transform="translate(285,316)"/>
<path d="M0 0 C0.66 0 1.32 0 2 0 C1.67 2.31 1.34 4.62 1 7 C0.01 7 -0.98 7 -2 7 C-1.67 6.01 -1.34 5.02 -1 4 C-1.33 3.67 -1.66 3.34 -2 3 C-1.34 2.01 -0.68 1.02 0 0 Z" fill="#303336" transform="translate(276,191)"/>
<path d="M0 0 C0.66 0.33 1.32 0.66 2 1 C2 1.99 2 2.98 2 4 C0.35 4.66 -1.3 5.32 -3 6 C-2.42655063 3.13275314 -2.1385485 2.1385485 0 0 Z" fill="#515352" transform="translate(170,346)"/>
<path d="M0 0 C0.91058531 3.07322544 1.08886184 5.80097361 1 9 C0.34 9 -0.32 9 -1 9 C-2.0326802 6.21176345 -2.04509293 5.1322726 -1.0625 2.25 C-0.711875 1.5075 -0.36125 0.765 0 0 Z" fill="#333739" transform="translate(227,182)"/>
<path d="" fill="#FFFFFF" transform="translate(0,0)"/>
<path d="" fill="#FFFFFF" transform="translate(0,0)"/>
<path d="" fill="#FFFFFF" transform="translate(0,0)"/>
<path d="" fill="#FFFFFF" transform="translate(0,0)"/>
<path d="" fill="#FFFFFF" transform="translate(0,0)"/>
<path d="" fill="#FFFFFF" transform="translate(0,0)"/>
<path d="" fill="#FFFFFF" transform="translate(0,0)"/>
<path d="" fill="#FFFFFF" transform="translate(0,0)"/>
<path d="" fill="#FFFFFF" transform="translate(0,0)"/>
<path d="" fill="#FFFFFF" transform="translate(0,0)"/>
<path d="" fill="#FFFFFF" transform="translate(0,0)"/>
<path d="" fill="#FFFFFF" transform="translate(0,0)"/>
<path d="" fill="#FFFFFF" transform="translate(0,0)"/>
<path d="" fill="#FFFFFF" transform="translate(0,0)"/>
<path d="" fill="#FFFFFF" transform="translate(0,0)"/>
<path d="" fill="#FFFFFF" transform="translate(0,0)"/>
<path d="" fill="#FFFFFF" transform="translate(0,0)"/>
<path d="" fill="#FFFFFF" transform="translate(0,0)"/>
<path d="" fill="#FFFFFF" transform="translate(0,0)"/>
<path d="" fill="#FFFFFF" transform="translate(0,0)"/>
<path d="" fill="#FFFFFF" transform="translate(0,0)"/>
<path d="" fill="#FFFFFF" transform="translate(0,0)"/>
<path d="" fill="#FFFFFF" transform="translate(0,0)"/>
<path d="" fill="#FFFFFF" transform="translate(0,0)"/>
<path d="" fill="#FFFFFF" transform="translate(0,0)"/>
<path d="" fill="#FFFFFF" transform="translate(0,0)"/>
<path d="" fill="#FFFFFF" transform="translate(0,0)"/>
<path d="" fill="#FFFFFF" transform="translate(0,0)"/>
<path d="" fill="#FFFFFF" transform="translate(0,0)"/>
<path d="" fill="#FFFFFF" transform="translate(0,0)"/>
<path d="" fill="#FFFFFF" transform="translate(0,0)"/>
<path d="" fill="#FFFFFF" transform="translate(0,0)"/>
<path d="" fill="#FFFFFF" transform="translate(0,0)"/>
<path d="" fill="#FFFFFF" transform="translate(0,0)"/>
<path d="" fill="#FFFFFF" transform="translate(0,0)"/>
<path d="" fill="#FFFFFF" transform="translate(0,0)"/>
<path d="" fill="#FFFFFF" transform="translate(0,0)"/>
<path d="" fill="#FFFFFF" transform="translate(0,0)"/>
<path d="" fill="#FFFFFF" transform="translate(0,0)"/>
<path d="" fill="#FFFFFF" transform="translate(0,0)"/>
<path d="" fill="#FFFFFF" transform="translate(0,0)"/>
<path d="" fill="#FFFFFF" transform="translate(0,0)"/>
<path d="" fill="#FFFFFF" transform="translate(0,0)"/>
<path d="" fill="#FFFFFF" transform="translate(0,0)"/>
<path d="" fill="#FFFFFF" transform="translate(0,0)"/>
<path d="" fill="#FFFFFF" transform="translate(0,0)"/>
<path d="" fill="#FFFFFF" transform="translate(0,0)"/>
<path d="" fill="#FFFFFF" transform="translate(0,0)"/>
<path d="" fill="#FFFFFF" transform="translate(0,0)"/>
<path d="" fill="#FFFFFF" transform="translate(0,0)"/>
<path d="" fill="#FFFFFF" transform="translate(0,0)"/>
<path d="" fill="#FFFFFF" transform="translate(0,0)"/>
<path d="" fill="#FFFFFF" transform="translate(0,0)"/>
<path d="" fill="#FFFFFF" transform="translate(0,0)"/>
<path d="" fill="#FFFFFF" transform="translate(0,0)"/>
<path d="" fill="#FFFFFF" transform="translate(0,0)"/>
<path d="" fill="#FFFFFF" transform="translate(0,0)"/>
<path d="" fill="#FFFFFF" transform="translate(0,0)"/>
<path d="" fill="#FFFFFF" transform="translate(0,0)"/>
<path d="" fill="#FFFFFF" transform="translate(0,0)"/>
<path d="" fill="#FFFFFF" transform="translate(0,0)"/>
<path d="" fill="#FFFFFF" transform="translate(0,0)"/>
<path d="" fill="#FFFFFF" transform="translate(0,0)"/>
<path d="" fill="#FFFFFF" transform="translate(0,0)"/>
<path d="" fill="#FFFFFF" transform="translate(0,0)"/>
<path d="" fill="#FFFFFF" transform="translate(0,0)"/>
<path d="" fill="#FFFFFF" transform="translate(0,0)"/>
<path d="" fill="#FFFFFF" transform="translate(0,0)"/>
<path d="" fill="#FFFFFF" transform="translate(0,0)"/>
<path d="" fill="#FFFFFF" transform="translate(0,0)"/>
<path d="" fill="#FFFFFF" transform="translate(0,0)"/>
<path d="" fill="#FFFFFF" transform="translate(0,0)"/>
<path d="" fill="#FFFFFF" transform="translate(0,0)"/>
<path d="" fill="#FFFFFF" transform="translate(0,0)"/>
<path d="" fill="#FFFFFF" transform="translate(0,0)"/>
<path d="" fill="#FFFFFF" transform="translate(0,0)"/>
<path d="" fill="#FFFFFF" transform="translate(0,0)"/>
<path d="" fill="#FFFFFF" transform="translate(0,0)"/>
<path d="" fill="#FFFFFF" transform="translate(0,0)"/>
<path d="" fill="#FFFFFF" transform="translate(0,0)"/>
<path d="" fill="#FFFFFF" transform="translate(0,0)"/>
<path d="" fill="#FFFFFF" transform="translate(0,0)"/>
<path d="" fill="#FFFFFF" transform="translate(0,0)"/>
<path d="" fill="#FFFFFF" transform="translate(0,0)"/>
</svg>